# xmcd
#
# Track frame offsets:
#	150
#	18508
#	35262
#	50495
#	65777
#	81365
#	97074
#	114266
#	131974
#	147628
#	168081
#
# Disc length: 2474 seconds
#
# Revision: 1
# Processed by: cddbd v1.5.2PL0 Copyright (c) Steve Scherf et al.
# Submitted via: audiograbber 1.83.01
#
DISCID=9e09a80b
DTITLE=Gary Allan - Living Hard
DYEAR=2007
DGENRE=Country
TTITLE0=Watching Airplanes
TTITLE1=We Touched The Sun
TTITLE2=She's So California
TTITLE3=Like It's A Bad Thing
TTITLE4=Learning How To Bend
TTITLE5=As Long As You're Looking Back
TTITLE6=Wrecking Ball
TTITLE7=Yesterday's Rain
TTITLE8=Trying to Matter
TTITLE9=Half Of My Mistakes
TTITLE10=Living Hard
EXTD=
EXTT0=
EXTT1=
EXTT2=
EXTT3=
EXTT4=
EXTT5=
EXTT6=
EXTT7=
EXTT8=
EXTT9=
EXTT10=
PLAYORDER=
